<?xml version="1.0" encoding="UTF-8"?><svg id="Capa_1" xmlns="http://www.w3.org/2000/svg" xmlns:xlink="http://www.w3.org/1999/xlink" viewBox="0 0 64 64"><defs><style>.cls-1{clip-path:url(#clippath);}.cls-2{fill:none;}.cls-2,.cls-3,.cls-4,.cls-5,.cls-6,.cls-7{stroke-width:0px;}.cls-8{opacity:.1;}.cls-9{opacity:.71;}.cls-3{fill:#222;}.cls-4{fill:#dbceba;}.cls-5{fill:#69c29e;}.cls-6{fill:#fff;}.cls-7{fill:#eb5055;}</style><clipPath id="clippath"><rect class="cls-2" x="-1093.29" y="-68.69" width="967" height="1095"/></clipPath></defs><g class="cls-1"><g class="cls-9"><g class="cls-8"><path class="cls-4" d="M10.44-79.19c25.07,0,43.38,16.35,43.38,38.58,0,15.47-8.94,29.21-27.9,32.26v.44c20.05,3.27,30.73,17.22,30.73,34.22,0,21.8-17.44,38.36-41.41,38.36h-60.81V-79.19H10.44ZM-8.74-21.21H4.99c8.06,0,13.3-6.1,13.3-16.35s-5.01-15.91-13.73-15.91h-13.3V-21.21ZM-8.74,37.64H6.3c7.85,0,12.86-5.88,12.86-16.13S13.92,5.16,5.64,5.16h-14.39v32.48Z"/><path class="cls-4" d="M87.59,66.85c-15.69,0-28.34-11.33-28.34-28.12s12.64-28.34,35.31-33.13c14.17-3.05,19.4-7.41,19.4-13.73,0-5.67-4.36-9.15-12.21-9.15-10.68,0-23.54,6.1-35.31,18.09v-27.68c11.12-9.16,26.81-14.17,41.41-14.17,25.28,0,40.76,14.6,40.76,38.14v36.84c0,14.6.65,23.1,2.18,30.73h-33.57l-.87-15.04h-1.96c-6.1,11.33-15.91,17.22-26.81,17.22ZM103.07,22.16c-6.54,3.05-11.12,6.54-11.12,12.42s4.36,9.15,9.81,9.15c7.41,0,13.08-5.89,13.08-16.57V10.61c-3.05,5.23-5.67,8.72-11.77,11.55Z"/></g></g></g><path class="cls-5" d="M15.86,25.96c0-2.42-1.52-4.4-4.37-4.86v-.06c2.69-.43,3.96-2.38,3.96-4.58,0-3.16-2.6-5.48-6.16-5.48H1.34v20.44h8.64c3.41,0,5.88-2.35,5.88-5.45ZM6.57,14.63h1.89c1.24,0,1.95.81,1.95,2.26s-.74,2.32-1.89,2.32h-1.95v-4.58ZM6.57,27.57v-4.61h2.04c1.18,0,1.92.87,1.92,2.32s-.71,2.29-1.83,2.29h-2.14Z"/><path class="cls-5" d="M20.84,31.61c.72,0,1.43-.2,1.59-2.56l.04-.54h2.95v2.77h2.03v.12h1.79c-.22-1.08-.31-2.29-.31-4.37v-5.23c0-3.34-2.2-5.42-5.79-5.42-2.07,0-4.3.71-5.88,2.01v3.93c1.67-1.7,3.5-2.57,5.02-2.57,1.11,0,1.73.5,1.73,1.3,0,.9-.74,1.52-2.76,1.95-3.22.68-5.02,2.29-5.02,4.71,0,2.25,1.6,3.81,3.66,3.98v-.09h.94ZM22.46,25.37c.87-.4,1.24-.9,1.67-1.64v2.35c0,1.52-.81,2.35-1.86,2.35-.77,0-1.39-.5-1.39-1.3s.65-1.33,1.58-1.76Z"/><path class="cls-5" d="M37.38,31.72c1.76,0,3.34-.53,4.3-1.42v-4.58c-1.15,1.24-2.48,1.92-3.72,1.92-1.86,0-3.03-1.46-3.03-3.59s1.21-3.56,2.97-3.56c1.27,0,2.51.65,3.72,1.89v-4.55c-1.15-.93-2.76-1.42-4.4-1.42-4.27,0-7.28,2.97-7.28,7.59s3,7.74,7.43,7.74Z"/><rect class="cls-7" x="1.33" y="32.47" width="5.23" height="20.44"/><path class="cls-7" d="M14.27,47.92v-6.1h3.07v-3.62h-3.13v-4.27h-2.82c-.25,3.56-1.36,4.77-3.34,4.77h-.56v3.13h1.83v6.56c0,2.97,1.89,4.83,4.8,4.83,1.18,0,2.23-.28,3.28-.9v-3.78c-.65.68-1.21.93-1.77.93-.87,0-1.36-.56-1.36-1.55Z"/><path class="cls-7" d="M27.49,40.07v1.3l-.29.17c-.44.26-.9.43-1.38.54.06.15.09.31.09.48,0,.9-.74,1.52-2.76,1.95-3.22.68-5.02,2.29-5.02,4.71s1.8,3.99,4.03,3.99c1.55,0,2.94-.84,3.81-2.45h.28l.12,2.14h4.77c-.22-1.08-.31-2.29-.31-4.37v-5.23c0-.42-.03-.81-.1-1.19-1.41-.22-2.53-.94-3.25-2.05ZM26.04,47.58c0,1.52-.8,2.35-1.86,2.35-.77,0-1.39-.5-1.39-1.3s.65-1.33,1.58-1.76c.87-.4,1.24-.9,1.67-1.64v2.35Z"/><path class="cls-7" d="M21.09,38.73c-.7.31-1.35.7-1.92,1.17v3.93c1.11-1.13,2.29-1.89,3.4-2.27-.87-.6-1.41-1.59-1.48-2.83Z"/><path class="cls-7" d="M37.59,32.47h-2.32c.97.97,1.53,2.41,1.53,4.19,0,2.96-1.64,5.05-4.16,5.47v10.78h5.26c-.15-1.18-.31-3.19-.31-4.61v-15.82Z"/><polygon class="cls-7" points="47.68 38.2 45.79 47.05 45.55 47.05 43.66 38.2 37.96 38.2 43.1 52.25 40.84 58.32 46.01 58.32 53.29 38.2 47.68 38.2"/><path class="cls-3" d="M26.84,38.65c-.39.39-.74.54-1.08.54-.56,0-.88-.36-.88-1.01v-3.96h1.99v-2.35h-2.03v-2.77h-1.83c-.05.77-.17,1.37-.35,1.83-.36.91-.96,1.27-1.82,1.27h-.36v2.03h1.19v4.26s0,.01,0,.02c0,1.38.65,2.39,1.71,2.84.41.18.88.27,1.41.27.22,0,.42-.02.63-.05.52-.08,1.01-.25,1.5-.53v-2.45s-.04.04-.06.06Z"/><path class="cls-6" d="M27.45,34.65s-.03.1-.04.15h.04v-.15Z"/><path class="cls-3" d="M34.37,32.47c-.71-.51-1.62-.8-2.68-.8-2.15,0-3.64,1.15-4.25,2.99v.15h-.04c-.17.56-.26,1.18-.26,1.85,0,.27.02.53.05.79.03.27.08.53.14.78.05.02.1.03.15.05v.49c.51,1.44,1.58,2.43,3.11,2.75.34.07.71.11,1.1.11.33,0,.64-.03.94-.08,2.24-.41,3.58-2.27,3.58-4.88,0-1.86-.66-3.34-1.85-4.19ZM32.64,38.68c-.23.29-.54.45-.94.45-.97,0-1.45-.82-1.45-2.45s.48-2.45,1.45-2.45c.32,0,.59.1.8.29.41.36.63,1.08.63,2.16,0,.94-.17,1.61-.49,2.01Z"/><path class="cls-6" d="M27.33,38.22c.04.19.09.37.15.54v-.49s-.1-.03-.15-.05Z"/><path class="cls-3" d="M61.34,22.51l3.16,6.11h-3.27l-4.1-6.11,4.1-6.11h3.27l-3.16,6.11Z"/><path class="cls-5" d="M57.87,14.2h-4.57l-5.48,8.17v-11.33h-5.26c.19,1.61.31,3.99.31,5.73v14.71h5.26c-.19-1.24-.31-3.1-.31-4.61v-3.75l5.48,8.17h4.57l-4.42-8.53,4.42-8.53Z"/><path class="cls-7" d="M54.01,47.99c1.53,0,2.68,1.19,2.68,2.75s-1.15,2.68-2.68,2.68-2.65-1.15-2.65-2.68,1.12-2.75,2.65-2.75Z"/></svg>