<?xml version="1.0" encoding="UTF-8"?><svg id="Capa_1" xmlns="http://www.w3.org/2000/svg" xmlns:xlink="http://www.w3.org/1999/xlink" viewBox="0 0 33.56 33.56"><defs><style>.cls-1{clip-path:url(#clippath);}.cls-2{fill:none;}.cls-2,.cls-3,.cls-4{stroke-width:0px;}.cls-5{opacity:.1;}.cls-6{opacity:.71;}.cls-3{fill:#dbceba;}.cls-4{fill:#eb5055;}</style><clipPath id="clippath"><rect class="cls-2" x="-1275.48" y="-217.08" width="967" height="1095"/></clipPath></defs><g class="cls-1"><g class="cls-6"><g class="cls-5"><path class="cls-3" d="M-8.61,78.79c-13.3,0-21.94-8.49-21.94-22.08v-30.01h-8.35v-14.29h2.55c9.06,0,14.15-5.52,15.29-21.8h12.88V10.15H6.11v16.56H-7.9v27.88c0,4.53,2.26,7.08,6.23,7.08,2.55,0,5.1-1.13,8.07-4.25v17.27c-4.81,2.83-9.62,4.1-15,4.1Z"/><path class="cls-3" d="M71.93,43.83c0,20.81-12.17,34.96-31.85,34.96s-31.99-14.01-31.99-34.96S19.98,8.73,40.08,8.73s31.85,14.15,31.85,35.1ZM29.89,43.97c0,11.46,3.4,17.27,10.19,17.27s10.05-5.8,10.05-17.27-3.4-17.27-10.05-17.27-10.19,5.66-10.19,17.27Z"/></g></g></g><path class="cls-4" d="M21.03,9.5h-8.5c-1.68,0-3.04,1.36-3.04,3.04v8.5c0,1.68,1.36,3.04,3.04,3.04h8.5c1.68,0,3.04-1.36,3.04-3.04v-8.5c0-1.68-1.36-3.04-3.04-3.04ZM16.79,21.33c-2.51,0-4.55-2.04-4.55-4.55s2.04-4.55,4.55-4.55,4.55,2.04,4.55,4.55-2.04,4.55-4.55,4.55ZM21.65,12.84c-.5,0-.91-.41-.91-.91s.41-.91.91-.91.91.41.91.91-.41.91-.91.91Z"/><path class="cls-4" d="M16.79,13.75c-1.67,0-3.04,1.36-3.04,3.04s1.36,3.04,3.04,3.04,3.04-1.36,3.04-3.04-1.36-3.04-3.04-3.04Z"/><path class="cls-4" d="M16.78,0h0C7.51,0,0,7.51,0,16.78h0c0,9.27,7.51,16.78,16.78,16.78h0c9.27,0,16.78-7.51,16.78-16.78h0C33.56,7.51,26.05,0,16.78,0ZM25.58,21.33c0,2.35-1.9,4.25-4.25,4.25h-9.11c-2.35,0-4.25-1.9-4.25-4.25v-9.11c0-2.35,1.9-4.25,4.25-4.25h9.11c2.35,0,4.25,1.9,4.25,4.25v9.11Z"/></svg>