<?xml version="1.0" encoding="UTF-8"?><svg id="Capa_1" xmlns="http://www.w3.org/2000/svg" xmlns:xlink="http://www.w3.org/1999/xlink" viewBox="0 0 33.56 33.56"><defs><style>.cls-1{clip-path:url(#clippath);}.cls-2{fill:none;}.cls-2,.cls-3,.cls-4{stroke-width:0px;}.cls-5{opacity:.1;}.cls-6{opacity:.71;}.cls-3{fill:#dbceba;}.cls-4{fill:#eb5055;}</style><clipPath id="clippath"><rect class="cls-2" x="-1351.27" y="-217.42" width="967" height="1095"/></clipPath></defs><g class="cls-1"><g class="cls-6"><g class="cls-5"><path class="cls-3" d="M59.74-45.89V97.96H22.91V-45.89h36.84Z"/></g></g></g><path class="cls-4" d="M16.78,0h0C7.51,0,0,7.51,0,16.78h0c0,9.27,7.51,16.78,16.78,16.78h0c9.27,0,16.78-7.51,16.78-16.78h0C33.56,7.51,26.05,0,16.78,0ZM12.64,24.38c0,.09-.07.16-.16.16h-3.28c-.09,0-.16-.07-.16-.16v-10.48c0-.09.07-.16.16-.16h3.28c.09,0,.16.07.16.16v10.48ZM10.84,12.29c-1.19,0-2.16-.97-2.16-2.16s.97-2.16,2.16-2.16,2.16.97,2.16,2.16-.97,2.16-2.16,2.16ZM24.89,23.82c0,.4-.32.72-.72.72h-2.16c-.4,0-.72-.32-.72-.72v-5.04c0-.99-.81-1.8-1.8-1.8s-1.8.81-1.8,1.8v5.04c0,.4-.32.72-.72.72h-2.16c-.4,0-.72-.32-.72-.72v-9.37c0-.4.32-.72.72-.72h2.16c.4,0,.72.32.72.72v.46c.72-.93,1.91-1.54,3.24-1.54,1.99,0,3.96,1.44,3.96,4.32v6.12Z"/></svg>