<?xml version="1.0" encoding="UTF-8"?><svg id="Capa_1" xmlns="http://www.w3.org/2000/svg" xmlns:xlink="http://www.w3.org/1999/xlink" viewBox="0 0 281.75 72.57"><defs><style>.cls-1{font-family:UtileNarrow-Black, 'Utile Narrow';font-size:67.2px;font-weight:800;}.cls-1,.cls-2{fill:#eb5055;}.cls-3{clip-path:url(#clippath);}.cls-4{fill:none;}.cls-4,.cls-5,.cls-6,.cls-7,.cls-2{stroke-width:0px;}.cls-8{opacity:.1;}.cls-9{opacity:.71;}.cls-5{fill:#dbceba;}.cls-6{fill:#333;}.cls-7{fill:#69c29e;}</style><clipPath id="clippath"><rect class="cls-4" x="-1248.45" y="-502.29" width="967" height="1095"/></clipPath></defs><g class="cls-3"><g class="cls-9"><g class="cls-8"><path class="cls-5" d="M-45.78,163.11c-15.69,0-28.34-11.33-28.34-28.12s12.64-28.34,35.31-33.13c14.17-3.05,19.4-7.41,19.4-13.73,0-5.67-4.36-9.15-12.21-9.15-10.68,0-23.54,6.1-35.31,18.09v-27.68c11.12-9.16,26.81-14.17,41.41-14.17C-.23,55.22,15.25,69.82,15.25,93.36v36.84c0,14.6.65,23.1,2.18,30.73H-16.14l-.87-15.04h-1.96c-6.1,11.33-15.91,17.22-26.81,17.22ZM-30.31,118.43c-6.54,3.05-11.12,6.54-11.12,12.42s4.36,9.15,9.81,9.15c7.41,0,13.08-5.89,13.08-16.57v-16.56c-3.05,5.23-5.67,8.72-11.77,11.55Z"/><path class="cls-5" d="M74.75,163.11c-31.17,0-52.31-21.14-52.31-54.49s21.14-53.4,51.22-53.4c11.55,0,22.89,3.49,30.95,10.03v32.04c-8.5-8.72-17.22-13.3-26.16-13.3-12.42,0-20.92,10.46-20.92,25.07s8.28,25.28,21.36,25.28c8.72,0,18.09-4.8,26.16-13.51v32.26c-6.76,6.32-17.87,10.03-30.3,10.03Z"/><path class="cls-5" d="M187.88,99.87l31.09,60.07h-32.14l-40.31-60.07,40.31-60.07h32.14l-31.09,60.07Z"/><path class="cls-5" d="M246.12,98.3l22.25,43h-23.01l-28.86-43,28.86-43h23.01l-22.25,43Z"/><path class="cls-5" d="M148.26,109.04v19.83c0,10.68.87,23.76,2.18,32.48h-37.05V57.82c0-12.21-.87-28.99-2.18-40.32h37.05v86.09"/></g></g><g class="cls-9"><g class="cls-8"><path class="cls-5" d="M107.77-19.16l-36.18-98.96h40.1l13.3,62.34h1.74l13.3-62.34h39.45L128.26,23.56h-36.4l15.91-42.72Z"/></g></g></g><path class="cls-7" d="M15.77,14.17c7.05,0,12.21,4.6,12.21,10.86,0,4.36-2.52,8.22-7.85,9.08v.12c5.64.92,8.65,4.85,8.65,9.63,0,6.13-4.91,10.8-11.66,10.8H0V14.17h15.77ZM10.37,30.49h3.86c2.27,0,3.74-1.72,3.74-4.6s-1.41-4.48-3.86-4.48h-3.74v9.08ZM10.37,47.05h4.23c2.21,0,3.62-1.66,3.62-4.54s-1.47-4.6-3.8-4.6h-4.05v9.14Z"/><path class="cls-7" d="M37.48,55.27c-4.42,0-7.98-3.19-7.98-7.91s3.56-7.98,9.94-9.32c3.99-.86,5.46-2.09,5.46-3.86,0-1.59-1.23-2.58-3.44-2.58-3.01,0-6.63,1.72-9.94,5.09v-7.79c3.13-2.58,7.55-3.99,11.66-3.99,7.12,0,11.47,4.11,11.47,10.74v10.37c0,4.11.18,6.5.61,8.65h-9.45l-.25-4.23h-.55c-1.72,3.19-4.48,4.85-7.55,4.85ZM41.84,42.7c-1.84.86-3.13,1.84-3.13,3.5s1.23,2.58,2.76,2.58c2.09,0,3.68-1.66,3.68-4.66v-4.66c-.86,1.47-1.59,2.45-3.31,3.25Z"/><path class="cls-7" d="M71.41,55.27c-8.77,0-14.72-5.95-14.72-15.34s5.95-15.03,14.42-15.03c3.25,0,6.44.98,8.71,2.82v9.02c-2.39-2.45-4.85-3.74-7.36-3.74-3.5,0-5.89,2.94-5.89,7.05s2.33,7.12,6.01,7.12c2.45,0,5.09-1.35,7.36-3.8v9.08c-1.9,1.78-5.03,2.82-8.53,2.82Z"/><path class="cls-2" d="M179.74,13.84v40.49h-10.37V13.84h10.37Z"/><path class="cls-2" d="M194.71,54.94c-5.77,0-9.51-3.68-9.51-9.57v-13.01h-3.62v-6.2h1.1c3.93,0,6.13-2.39,6.63-9.45h5.58v8.47h6.2v7.18h-6.07v12.09c0,1.96.98,3.07,2.7,3.07,1.1,0,2.21-.49,3.5-1.84v7.48c-2.09,1.23-4.17,1.78-6.5,1.78Z"/><path class="cls-2" d="M210.66,54.94c-4.42,0-7.97-3.19-7.97-7.91s3.56-7.98,9.94-9.32c3.99-.86,5.46-2.09,5.46-3.86,0-1.59-1.23-2.58-3.44-2.58-3.01,0-6.63,1.72-9.94,5.09v-7.79c3.13-2.58,7.55-3.99,11.66-3.99,7.12,0,11.47,4.11,11.47,10.74v10.37c0,4.11.18,6.5.61,8.65h-9.45l-.25-4.23h-.55c-1.72,3.19-4.48,4.85-7.55,4.85ZM215.02,42.36c-1.84.86-3.13,1.84-3.13,3.5s1.23,2.58,2.76,2.58c2.09,0,3.68-1.66,3.68-4.66v-4.66c-.86,1.47-1.59,2.45-3.31,3.25Z"/><path class="cls-2" d="M231.4,54.32v-29.14c0-2.7-.12-6.07-.61-11.35h10.43v31.35c0,2.82.31,6.81.61,9.14h-10.43Z"/><path class="cls-2" d="M252.13,53.04l-10.18-27.85h11.29l3.74,17.55h.49l3.74-17.55h11.1l-14.42,39.87h-10.24l4.48-12.02Z"/><path class="cls-6" d="M139.18,48.83c-3.74,0-6.17-2.39-6.17-6.21v-8.45h-2.35v-4.02h.72c2.55,0,3.98-1.55,4.3-6.13h3.63v5.5h4.02v4.66h-3.94v7.85c0,1.27.64,1.99,1.75,1.99.72,0,1.43-.32,2.27-1.2v4.86c-1.35.8-2.71,1.16-4.22,1.16Z"/><path class="cls-6" d="M161.84,38.99c0,5.86-3.43,9.84-8.96,9.84s-9-3.94-9-9.84,3.35-9.88,9-9.88,8.96,3.98,8.96,9.88ZM150.01,39.03c0,3.23.96,4.86,2.87,4.86s2.83-1.63,2.83-4.86-.96-4.86-2.83-4.86-2.87,1.59-2.87,4.86Z"/><path class="cls-6" d="M119.64,37.03l6.26,12.1h-6.48l-8.12-12.1,8.12-12.1h6.48l-6.26,12.1Z"/><path class="cls-7" d="M112,20.57h-9.05l-10.86,16.18V14.29h-10.43c.37,3.19.61,7.91.61,11.35v29.14h10.43c-.37-2.45-.61-6.13-.61-9.14v-7.43l10.86,16.18h9.05l-8.75-16.91,8.75-16.91Z"/><text class="cls-1" transform="translate(265.82 55.77)"><tspan x="0" y="0">.</tspan></text></svg>